<svg xmlns="http://www.w3.org/2000/svg" viewBox="0 0 86.66 86.66"><defs><style>.cls-1{fill:#e20613;}.cls-2{fill:#fff;}</style></defs><title>location</title><g id="Layer_2" data-name="Layer 2"><g id="Camada_1" data-name="Camada 1"><rect class="cls-1" width="86.66" height="86.66" rx="6.69"/><path class="cls-2" d="M43.57,18.59A18.69,18.69,0,0,0,24.9,37.25C24.9,52.07,41.57,67,42.27,67.59a2,2,0,0,0,1.3.48,1.94,1.94,0,0,0,1.33-.52c.71-.66,17.33-16.37,17.33-30.29A18.68,18.68,0,0,0,43.57,18.59Zm0,27.56a8.9,8.9,0,1,1,8.9-8.89,8.9,8.9,0,0,1-8.9,8.89Z"/></g></g></svg>