<svg xmlns="http://www.w3.org/2000/svg" viewBox="0 0 86.66 86.66"><defs><style>.cls-1{fill:#e20613;}.cls-2{fill:#fff;}</style></defs><title>mail</title><g id="Layer_2" data-name="Layer 2"><g id="Camada_1" data-name="Camada 1"><rect class="cls-1" width="86.66" height="86.66" rx="6.69"/><path class="cls-2" d="M68.17,38.24h0a.53.53,0,0,0,0-.13v0s0-.06,0-.09v0l0-.11h0a.56.56,0,0,0,0-.12l0,0,0-.07,0,0-.06-.1,0,0,0-.07,0,0-.08-.09h0l-.09-.08h0l-2.46-2.05V28.81a3.37,3.37,0,0,0-3.36-3.36H53.58l-6.64-5.51a5.28,5.28,0,0,0-6.76,0l-6.64,5.51H25.3a3.37,3.37,0,0,0-3.37,3.36v6.27l-2.46,2.05h0l-.09.08h0l-.08.09,0,0a.18.18,0,0,1-.05.07.08.08,0,0,1,0,0l-.06.1,0,0,0,.07,0,0s0,.08,0,.12h0L19,38v0s0,.06,0,.09v0a.53.53,0,0,0,0,.13V62.65a5.28,5.28,0,0,0,1.66,3.84l.09.08a5.26,5.26,0,0,0,3.54,1.37H62.88a5.24,5.24,0,0,0,3.54-1.37l.09-.08a5.28,5.28,0,0,0,1.66-3.84V38.24ZM25.3,28.33H61.83a.49.49,0,0,1,.48.48V40l-.82.68L45.1,54.31a2.4,2.4,0,0,1-3.07,0l-16.4-13.6L24.82,40V28.81a.48.48,0,0,1,.48-.48ZM21.84,62.65V41.31l.62.51h0L36.54,53.51,22,63.48a2.54,2.54,0,0,1-.14-.83Zm17-7.23,1.34,1.11a5.28,5.28,0,0,0,6.76,0l1.34-1.11,14,9.63H24.79Zm11.74-1.91L64.66,41.82h0l.62-.51V62.65a2.54,2.54,0,0,1-.15.83ZM42,22.16a2.4,2.4,0,0,1,3.07,0l4,3.29h-11Z"/><path class="cls-2" d="M31.59,34.58A1.44,1.44,0,0,0,33,36H46.69a1.44,1.44,0,1,0,0-2.88H33a1.44,1.44,0,0,0-1.44,1.44Z"/><path class="cls-2" d="M33,41.79H54.09a1.44,1.44,0,0,0,1.39-1.08,1.49,1.49,0,0,0,.05-.36,1.44,1.44,0,0,0-1.44-1.44H33a1.44,1.44,0,0,0-1.44,1.44,1.49,1.49,0,0,0,.05.36A1.44,1.44,0,0,0,33,41.79Z"/></g></g></svg>