<svg xmlns="http://www.w3.org/2000/svg" viewBox="0 0 86.66 86.66"><defs><style>.cls-1{fill:#e20613;}.cls-2{fill:#fff;}</style></defs><title>phone</title><g id="Layer_2" data-name="Layer 2"><g id="Camada_1" data-name="Camada 1"><rect class="cls-1" width="86.66" height="86.66" rx="6.69"/><path class="cls-2" d="M35.73,41.56c1,4.31,6.57,9.65,10.68,10.68a3.91,3.91,0,0,0,4.52-2.46h0a3.82,3.82,0,0,1,6.37-1.44l5.75,5.75a4.1,4.1,0,0,1,0,5.55l-3.9,3.9c-4.11,4.11-15-.41-24.66-10.07s-14-20.54-10.06-24.65l3.9-3.9a4.1,4.1,0,0,1,5.55,0l5.75,5.75A3.83,3.83,0,0,1,38.19,37h0A3.72,3.72,0,0,0,35.73,41.56Z"/></g></g></svg>